<svg width="19" height="19" viewBox="0 0 19 19" fill="none" xmlns="http://www.w3.org/2000/svg">
<path d="M5.54102 12.0734V16.6251H0.791016V12.0734C0.791016 11.5272 1.23395 11.0842 1.7802 11.0842H4.55064C5.09689 11.083 5.54102 11.5272 5.54102 12.0734Z" fill="url(#paint0_linear)"/>
<path d="M11.873 8.90618V16.6249H7.12305V8.90618C7.12305 8.35993 7.56598 7.91699 8.11223 7.91699H10.8827C11.4301 7.91699 11.873 8.35993 11.873 8.90618Z" fill="url(#paint1_linear)"/>
<path d="M18.207 5.73919V16.625H13.457V5.73919C13.457 5.19294 13.9 4.75 14.4462 4.75H17.2178C17.7641 4.75 18.207 5.19294 18.207 5.73919Z" fill="url(#paint2_linear)"/>
<path d="M5.54102 7.32342V11.8751H0.791016V7.32342C0.791016 6.77717 1.23395 6.33423 1.7802 6.33423H4.55064C5.09689 6.33304 5.54102 6.77717 5.54102 7.32342Z" fill="url(#paint3_linear)"/>
<path d="M11.873 4.15618V11.8749H7.12305V4.15618C7.12305 3.60993 7.56598 3.16699 8.11223 3.16699H10.8827C11.4301 3.16699 11.873 3.60993 11.873 4.15618Z" fill="url(#paint4_linear)"/>
<path d="M18.207 0.989188V11.875H13.457V0.989188C13.457 0.442938 13.9 0 14.4462 0H17.2178C17.7641 0 18.207 0.442938 18.207 0.989188Z" fill="url(#paint5_linear)"/>
<path d="M18.4062 19H0.59375C0.266 19 0 18.734 0 18.4062C0 18.0785 0.266 17.8125 0.59375 17.8125H18.4062C18.734 17.8125 19 18.0785 19 18.4062C19 18.734 18.734 19 18.4062 19Z" fill="#0071E3"/>
<defs>
<linearGradient id="paint0_linear" x1="3.16602" y1="11.0842" x2="3.16602" y2="18.5" gradientUnits="userSpaceOnUse">
<stop offset="0.0431184" stop-color="#0071E3"/>
<stop offset="1" stop-color="#0071E3" stop-opacity="0"/>
</linearGradient>
<linearGradient id="paint1_linear" x1="9.49805" y1="7.91699" x2="9.5" y2="18.5" gradientUnits="userSpaceOnUse">
<stop offset="0.27233" stop-color="#0071E3"/>
<stop offset="0.947088" stop-color="#0071E3" stop-opacity="0"/>
</linearGradient>
<linearGradient id="paint2_linear" x1="15.832" y1="4.75" x2="16" y2="18.5" gradientUnits="userSpaceOnUse">
<stop offset="0.199557" stop-color="#0071E3"/>
<stop offset="1" stop-color="#0071E3" stop-opacity="0"/>
</linearGradient>
<linearGradient id="paint3_linear" x1="3.16602" y1="6.33423" x2="3.16602" y2="13.5" gradientUnits="userSpaceOnUse">
<stop offset="0.224177" stop-color="#0071E3"/>
<stop offset="0.949214" stop-color="#0071E3" stop-opacity="0"/>
</linearGradient>
<linearGradient id="paint4_linear" x1="9.49805" y1="3.16699" x2="9.49805" y2="11.8749" gradientUnits="userSpaceOnUse">
<stop offset="0.0916895" stop-color="#0071E3"/>
<stop offset="0.888125" stop-color="#0071E3" stop-opacity="0"/>
</linearGradient>
<linearGradient id="paint5_linear" x1="15.832" y1="0" x2="15.832" y2="11.875" gradientUnits="userSpaceOnUse">
<stop offset="0.10225" stop-color="#0071E3"/>
<stop offset="0.864863" stop-color="#0071E3" stop-opacity="0"/>
</linearGradient>
</defs>
</svg>
