<svg width="19" height="19" viewBox="0 0 19 19" fill="none" xmlns="http://www.w3.org/2000/svg">
<path d="M3.95208 3.5625H10.2981L11.6673 2.46644C12.134 2.09475 12.3073 1.49031 12.1102 0.92625C11.9143 0.364562 11.4013 0 10.8063 0H3.44383C2.8489 0 2.3359 0.364563 2.13877 0.927438C1.94165 1.49031 2.11502 2.09475 2.58171 2.46644L3.95208 3.5625Z" fill="#0071E3"/>
<path d="M13.8544 13.4579C16.6962 13.4579 18.9999 12.7492 18.9999 11.8749C18.9999 11.0007 16.6962 10.292 13.8544 10.292C11.0127 10.292 8.70898 11.0007 8.70898 11.8749C8.70898 12.7492 11.0127 13.4579 13.8544 13.4579Z" fill="url(#paint0_linear)"/>
<path d="M13.8544 16.2294C16.6961 16.2294 18.9999 15.5205 18.9999 14.6465V13.6431C17.3801 14.5788 14.5919 14.6465 13.8544 14.6465C13.117 14.6465 10.3287 14.5788 8.70898 13.6431V14.6465C8.7078 15.5205 11.0115 16.2294 13.8544 16.2294Z" fill="#0071E3"/>
<path d="M7.52044 17.4171V14.6467V14.3569V11.5865L7.55488 11.6067C7.86363 9.55822 11.5805 9.18297 13.2418 9.11884C12.5447 7.43972 11.5473 5.87103 10.4061 4.75122H3.84394C1.6815 6.87328 0 10.5961 0 13.6563C0 16.3163 1.40719 19 4.55169 19H8.42056C7.87787 18.6117 7.52044 18.0999 7.52044 17.4171Z" fill="url(#paint1_linear)"/>
<path d="M13.8544 17.417C13.117 17.417 10.3287 17.3493 8.70898 16.4136V17.417C8.70898 18.291 11.0127 18.9999 13.8544 18.9999C16.6961 18.9999 18.9999 18.291 18.9999 17.417V16.4136C17.3801 17.3481 14.5919 17.417 13.8544 17.417Z" fill="#0071E3"/>
<defs>
<linearGradient id="paint0_linear" x1="13.8544" y1="10.292" x2="10.5" y2="16.5" gradientUnits="userSpaceOnUse">
<stop offset="0.207897" stop-color="#0071E3"/>
<stop offset="1" stop-color="#0071E3" stop-opacity="0"/>
</linearGradient>
<linearGradient id="paint1_linear" x1="9" y1="5" x2="1.5" y2="20.5" gradientUnits="userSpaceOnUse">
<stop offset="0.325251" stop-color="#0071E3"/>
<stop offset="0.958038" stop-color="#0071E3" stop-opacity="0"/>
</linearGradient>
</defs>
</svg>
