<svg width="139" height="155" viewBox="0 0 139 155" fill="none" xmlns="http://www.w3.org/2000/svg">
<path d="M33.7429 54.1993C30.6992 57.668 27.64 60.7461 26.0358 64.6616C25.6814 65.5273 27.1611 66.1555 27.9965 65.344C32.3025 61.1544 37.6277 57.8865 42.0708 53.8384C45.8359 50.4079 47.6301 46.7772 49.5056 42.7597C54.5031 32.0617 62.2151 21.2769 63.6971 10.2785C64.3812 5.20956 53.7026 5.05418 52.1614 10.2333C49.116 20.4658 42.8448 30.3567 40.0228 40.5595C38.6182 45.6313 37.7907 49.5849 33.7414 54.1997L33.7429 54.1993Z" fill="#231F20"/>
<path d="M108.083 64.0347C103.099 65.3881 99.1272 68.4316 94.8621 71.7459C89.6566 75.7914 84.7813 78.2852 78.8338 80.2381C74.545 81.6459 70.9065 83.094 67.3398 86.4174C63.3701 90.1166 60.0156 96.9528 55.1079 98.7813C53.774 99.2778 54.042 101.394 55.4186 101.302C60.1695 100.984 63.3503 99.8377 67.6577 97.1846C72.6766 94.0926 76.997 92.4821 82.5705 91.3393C93.1154 89.1786 101.248 80.8977 110.876 75.7147C116.207 72.8441 113.9 62.4543 108.084 64.0333L108.083 64.0347Z" fill="#231F20"/>
<path d="M122.075 118.069C117.062 116.973 111.774 119.689 106.536 119.906C100.83 120.142 95.6016 117.977 89.8702 118.408C81.6542 119.027 73.4233 128.328 65.5548 126.85C64.0827 126.573 63.1675 129.131 64.069 130.115C69.3805 135.911 77.5592 130.079 84.4692 128.996C90.4306 128.063 95.5993 130.74 101.183 131.506C107.242 132.336 113.208 130.198 119.396 130.021C125.786 129.837 128.062 119.377 122.076 118.069L122.075 118.069Z" fill="#231F20"/>
</svg>
