<svg width="40" height="40" viewBox="0 0 40 40" fill="none" xmlns="http://www.w3.org/2000/svg">
<g id="Folder Icon Large">
<g id="Folder">
<path id="Folder 2" opacity="0.4" d="M28.1393 8.52539H23.2341C22.0122 8.53347 20.852 7.9899 20.0777 7.04649L18.4624 4.81336C17.701 3.86167 16.5409 3.31556 15.3207 3.33446H11.853C5.62901 3.33446 3.33205 6.98734 3.33205 13.1987V19.9129C3.3243 20.6513 36.6581 20.6503 36.6602 19.9129V17.9608C36.6899 11.7494 34.4522 8.52539 28.1393 8.52539Z" fill="#5E3AED"/>
<path id="Folder_2" fill-rule="evenodd" clip-rule="evenodd" d="M34.7189 10.9066C35.2521 11.5301 35.6642 12.2473 35.9341 13.0215C36.4651 14.6126 36.7109 16.2847 36.6602 17.961V26.7161C36.6581 27.4535 36.6036 28.1899 36.4972 28.9196C36.2946 30.2075 35.8415 31.4434 35.1635 32.5577C34.8519 33.096 34.4735 33.5929 34.0372 34.0366C32.0625 35.849 29.4403 36.7923 26.7611 36.6543H13.2164C10.5329 36.7913 7.90639 35.8484 5.92538 34.0366C5.49437 33.592 5.12098 33.0951 4.81395 32.5577C4.13995 31.4442 3.69652 30.2071 3.50986 28.9196C3.39118 28.1911 3.33171 27.4542 3.33203 26.7161V17.961C3.33174 17.2298 3.37132 16.4991 3.45059 15.7722C3.46726 15.6447 3.49226 15.5192 3.517 15.3951C3.55825 15.1881 3.59878 14.9847 3.59878 14.7814C3.74921 13.9042 4.02363 13.0527 4.41383 12.2524C5.56972 9.78268 7.94078 8.52562 11.8234 8.52562H28.1244C30.2991 8.35743 32.4575 9.01209 34.1706 10.3595C34.3679 10.5268 34.5513 10.7097 34.7189 10.9066ZM11.6167 25.9025H28.3919H28.4215C28.7896 25.9185 29.1488 25.7867 29.4189 25.5366C29.689 25.2865 29.8475 24.939 29.859 24.5715C29.8798 24.2484 29.7735 23.9301 29.5626 23.6841C29.3201 23.3536 28.9357 23.1564 28.5253 23.1517H11.6167C10.8555 23.1517 10.2385 23.7675 10.2385 24.5271C10.2385 25.2867 10.8555 25.9025 11.6167 25.9025Z" fill="#5E3AED"/>
</g>
</g>
</svg>
