<svg width="19" height="20" viewBox="0 0 19 20" fill="none" xmlns="http://www.w3.org/2000/svg">
<path d="M9.5 18.951C4.28837 18.951 0.05 14.711 0.05 9.50098C0.05 4.29092 4.28837 0.0509766 9.5 0.0509766C14.7116 0.0509766 18.95 4.29092 18.95 9.50098C18.95 14.711 14.7116 18.951 9.5 18.951ZM9.5 2.06156C5.39848 2.06156 2.06058 5.39786 2.06058 9.50098C2.06058 13.6041 5.39848 16.9404 9.5 16.9404C13.6015 16.9404 16.9394 13.6041 16.9394 9.50098C16.9394 5.39786 13.6015 2.06156 9.5 2.06156Z" fill="url(#paint0_linear)" stroke="white" stroke-width="0.1"/>
<path d="M8.76918 0.363302L8.76917 0.363323C3.98997 5.4012 3.98997 13.5995 8.76917 18.6374C8.96676 18.8456 9.23372 18.9512 9.49922 18.9512C9.74812 18.9512 9.99695 18.8592 10.1916 18.6751C10.5943 18.2919 10.6108 17.6554 10.2293 17.2527C6.17349 12.9775 6.17348 6.02334 10.2292 1.74804M8.76918 0.363302L10.2656 1.78241M8.76918 0.363302C9.15072 -0.0393457 9.78878 -0.0560025 10.1915 0.32557M8.76918 0.363302L10.226 0.289329M10.2292 1.74804C10.2293 1.74803 10.2293 1.74801 10.2293 1.748L10.2656 1.78241M10.2292 1.74804C10.2292 1.74806 10.2292 1.74807 10.2292 1.74809L10.2656 1.78241M10.2292 1.74804C10.6109 1.34371 10.5943 0.708711 10.1915 0.32557M10.2656 1.78241C10.6661 1.35808 10.6487 0.691495 10.226 0.289329M10.1915 0.32557C10.1915 0.325588 10.1916 0.325605 10.1916 0.325623L10.226 0.289329M10.1915 0.32557C10.1915 0.325565 10.1915 0.32556 10.1915 0.325555L10.226 0.289329" fill="url(#paint1_linear)" stroke="white" stroke-width="0.1"/>
<path d="M10.231 0.363302L10.231 0.363323C15.0102 5.4012 15.0102 13.5995 10.231 18.6374C10.0334 18.8456 9.76648 18.9512 9.50097 18.9512C9.25208 18.9512 9.00326 18.8592 8.80861 18.6751C8.40595 18.292 8.38931 17.6571 8.77091 17.2527C12.8267 12.9775 12.8267 6.02331 8.77093 1.74802C8.38937 1.34534 8.40588 0.708818 8.80862 0.325623C9.213 -0.0560595 9.84951 -0.0393057 10.231 0.363302Z" fill="url(#paint2_linear)" stroke="white" stroke-width="0.1"/>
<path d="M17.6289 8.20352H1.37444C0.81939 8.20352 0.368359 7.75249 0.368359 7.19744C0.368359 6.64234 0.817856 6.19136 1.37444 6.19136H17.6289C18.184 6.19136 18.635 6.64239 18.635 7.19744C18.635 7.75249 18.184 8.20352 17.6289 8.20352Z" fill="#0071E3" stroke="white" stroke-width="0.1"/>
<path d="M17.6289 12.8095H1.37444C0.81939 12.8095 0.368359 12.3584 0.368359 11.8034C0.368359 11.2483 0.817856 10.7973 1.37444 10.7973H17.6289C18.184 10.7973 18.635 11.2483 18.635 11.8034C18.635 12.36 18.184 12.8095 17.6289 12.8095Z" fill="url(#paint3_linear)" stroke="white" stroke-width="0.1"/>
<defs>
<linearGradient id="paint0_linear" x1="18.5" y1="1" x2="-3.5" y2="20.5" gradientUnits="userSpaceOnUse">
<stop offset="0.50532" stop-color="#0071E3"/>
<stop offset="0.946695" stop-color="#0071E3" stop-opacity="0"/>
</linearGradient>
<linearGradient id="paint1_linear" x1="11" y1="-2" x2="6" y2="20" gradientUnits="userSpaceOnUse">
<stop offset="0.788919" stop-color="#0071E3"/>
<stop offset="1" stop-color="#0071E3" stop-opacity="0"/>
</linearGradient>
<linearGradient id="paint2_linear" x1="16" y1="1" x2="7" y2="21.5" gradientUnits="userSpaceOnUse">
<stop offset="0.756729" stop-color="#0071E3"/>
<stop offset="0.941331" stop-color="#0071E3" stop-opacity="0"/>
</linearGradient>
<linearGradient id="paint3_linear" x1="9.50169" y1="10.7473" x2="0.499999" y2="14" gradientUnits="userSpaceOnUse">
<stop offset="0.74389" stop-color="#0071E3"/>
<stop offset="1" stop-color="#0071E3" stop-opacity="0"/>
</linearGradient>
</defs>
</svg>
