<svg width="40" height="40" viewBox="0 0 40 40" fill="none" xmlns="http://www.w3.org/2000/svg">
<g id="Mail Icon Large">
<g id="Group">
<path id="Fill 1" opacity="0.4" d="M36.6654 26.5673C36.6654 31.2173 32.932 34.9839 28.282 35.0006H28.2654H11.7487C7.11537 35.0006 3.33203 31.2506 3.33203 26.6006V26.5839C3.33203 26.5839 3.34203 19.2073 3.35536 15.4973C3.35703 14.8006 4.15703 14.4106 4.70203 14.8439C8.66203 17.9856 15.7437 23.7139 15.832 23.7889C17.0154 24.7373 18.5154 25.2723 20.0487 25.2723C21.582 25.2723 23.082 24.7373 24.2654 23.7706C24.3537 23.7123 31.277 18.1556 35.297 14.9623C35.8437 14.5273 36.647 14.9173 36.6487 15.6123C36.6654 19.2939 36.6654 26.5673 36.6654 26.5673Z" fill="#5E3AED"/>
<path id="Fill 4" d="M35.7935 9.45667C34.3501 6.73667 31.5101 5 28.3835 5H11.7501C8.62347 5 5.78346 6.73667 4.34013 9.45667C4.0168 10.065 4.17013 10.8233 4.70846 11.2533L17.0835 21.1517C17.9501 21.8517 19.0001 22.2 20.0501 22.2C20.0568 22.2 20.0618 22.2 20.0668 22.2C20.0718 22.2 20.0785 22.2 20.0835 22.2C21.1335 22.2 22.1835 21.8517 23.0501 21.1517L35.4251 11.2533C35.9635 10.8233 36.1168 10.065 35.7935 9.45667Z" fill="#5E3AED"/>
</g>
</g>
</svg>
