<svg width="60" height="60" viewBox="0 0 60 60" fill="none" xmlns="http://www.w3.org/2000/svg">
<path fill-rule="evenodd" clip-rule="evenodd" d="M30 5C16.1929 5 5 16.1929 5 30C5 43.8071 16.1929 55 30 55C43.8071 55 55 43.8071 55 30C55 23.3696 52.3661 17.0107 47.6777 12.3223C42.9893 7.63392 36.6304 5 30 5ZM30 8C42.1503 8 52 17.8497 52 30C52 42.1503 42.1503 52 30 52C17.8497 52 8 42.1503 8 30C8 17.8497 17.8497 8 30 8ZM27.5 37.4997V22.4997C27.507 21.9996 27.8115 21.5519 28.274 21.3615C28.7364 21.171 29.2679 21.2746 29.625 21.6247L37.125 29.1247C37.6045 29.6193 37.6045 30.4052 37.125 30.8997L29.625 38.3997C29.2646 38.753 28.7272 38.8549 28.2625 38.6581C27.7978 38.4613 27.497 38.0044 27.5 37.4997Z" fill="black"/>
</svg>
