<svg width="263" height="89" viewBox="0 0 263 89" fill="none" xmlns="http://www.w3.org/2000/svg">
<rect width="263" height="89" fill="white"/>
<path d="M105.36 13.4V14.588H101.49V26H100.23V14.588H96.36V13.4H105.36ZM112.906 24.866C111.994 25.766 110.878 26.216 109.558 26.216C108.238 26.216 107.116 25.766 106.192 24.866C105.28 23.954 104.824 22.832 104.824 21.5C104.824 20.168 105.28 19.052 106.192 18.152C107.116 17.24 108.238 16.784 109.558 16.784C110.878 16.784 111.994 17.24 112.906 18.152C113.83 19.052 114.292 20.168 114.292 21.5C114.292 22.832 113.83 23.954 112.906 24.866ZM107.038 24.038C107.722 24.722 108.562 25.064 109.558 25.064C110.554 25.064 111.394 24.722 112.078 24.038C112.762 23.342 113.104 22.496 113.104 21.5C113.104 20.504 112.762 19.664 112.078 18.98C111.394 18.284 110.554 17.936 109.558 17.936C108.562 17.936 107.722 18.284 107.038 18.98C106.354 19.664 106.012 20.504 106.012 21.5C106.012 22.496 106.354 23.342 107.038 24.038ZM120.874 18.152H118.282V23.606C118.282 24.098 118.378 24.452 118.57 24.668C118.762 24.872 119.05 24.98 119.434 24.992C119.818 24.992 120.298 24.98 120.874 24.956V26C119.614 26.192 118.666 26.102 118.03 25.73C117.406 25.358 117.094 24.65 117.094 23.606V18.152H115.204V17H117.094V14.84L118.282 14.48V17H120.874V18.152ZM130.049 17H131.237V26H130.049V24.236C129.221 25.556 128.009 26.216 126.413 26.216C125.129 26.216 124.031 25.76 123.119 24.848C122.219 23.936 121.769 22.82 121.769 21.5C121.769 20.18 122.219 19.064 123.119 18.152C124.031 17.24 125.129 16.784 126.413 16.784C128.009 16.784 129.221 17.444 130.049 18.764V17ZM123.983 24.038C124.667 24.722 125.507 25.064 126.503 25.064C127.499 25.064 128.339 24.722 129.023 24.038C129.707 23.342 130.049 22.496 130.049 21.5C130.049 20.504 129.707 19.664 129.023 18.98C128.339 18.284 127.499 17.936 126.503 17.936C125.507 17.936 124.667 18.284 123.983 18.98C123.299 19.664 122.957 20.504 122.957 21.5C122.957 22.496 123.299 23.342 123.983 24.038ZM133.752 26V12.86H134.94V26H133.752ZM149.881 26L146.929 20.96H143.401V26H142.141V13.4H147.181C148.225 13.4 149.113 13.772 149.845 14.516C150.589 15.248 150.961 16.136 150.961 17.18C150.961 18.032 150.703 18.794 150.187 19.466C149.683 20.126 149.035 20.57 148.243 20.798L151.321 26H149.881ZM143.401 14.588V19.772H147.181C147.877 19.772 148.471 19.52 148.963 19.016C149.455 18.5 149.701 17.888 149.701 17.18C149.701 16.46 149.455 15.848 148.963 15.344C148.471 14.84 147.877 14.588 147.181 14.588H143.401ZM156.648 16.784C157.98 16.784 159.054 17.258 159.87 18.206C160.698 19.142 161.112 20.252 161.112 21.536C161.112 21.668 161.1 21.854 161.076 22.094H153.174C153.294 23.006 153.678 23.732 154.326 24.272C154.986 24.8 155.796 25.064 156.756 25.064C157.44 25.064 158.028 24.926 158.52 24.65C159.024 24.362 159.402 23.99 159.654 23.534L160.698 24.146C160.302 24.782 159.762 25.286 159.078 25.658C158.394 26.03 157.614 26.216 156.738 26.216C155.322 26.216 154.17 25.772 153.282 24.884C152.394 23.996 151.95 22.868 151.95 21.5C151.95 20.156 152.388 19.034 153.264 18.134C154.14 17.234 155.268 16.784 156.648 16.784ZM156.648 17.936C155.712 17.936 154.926 18.218 154.29 18.782C153.666 19.334 153.294 20.054 153.174 20.942H159.888C159.768 19.994 159.402 19.256 158.79 18.728C158.178 18.2 157.464 17.936 156.648 17.936ZM169.131 17H170.391L166.701 26H165.261L161.571 17H162.831L165.981 24.758L169.131 17ZM175.633 16.784C176.965 16.784 178.039 17.258 178.855 18.206C179.683 19.142 180.097 20.252 180.097 21.536C180.097 21.668 180.085 21.854 180.061 22.094H172.159C172.279 23.006 172.663 23.732 173.311 24.272C173.971 24.8 174.781 25.064 175.741 25.064C176.425 25.064 177.013 24.926 177.505 24.65C178.009 24.362 178.387 23.99 178.639 23.534L179.683 24.146C179.287 24.782 178.747 25.286 178.063 25.658C177.379 26.03 176.599 26.216 175.723 26.216C174.307 26.216 173.155 25.772 172.267 24.884C171.379 23.996 170.935 22.868 170.935 21.5C170.935 20.156 171.373 19.034 172.249 18.134C173.125 17.234 174.253 16.784 175.633 16.784ZM175.633 17.936C174.697 17.936 173.911 18.218 173.275 18.782C172.651 19.334 172.279 20.054 172.159 20.942H178.873C178.753 19.994 178.387 19.256 177.775 18.728C177.163 18.2 176.449 17.936 175.633 17.936ZM186.199 16.784C187.291 16.784 188.149 17.12 188.773 17.792C189.409 18.452 189.727 19.346 189.727 20.474V26H188.539V20.474C188.539 19.67 188.323 19.046 187.891 18.602C187.471 18.158 186.871 17.936 186.091 17.936C185.227 17.936 184.525 18.212 183.985 18.764C183.445 19.304 183.175 20.144 183.175 21.284V26H181.987V17H183.175V18.404C183.847 17.324 184.855 16.784 186.199 16.784ZM198.36 17H199.548V26H198.36V24.596C197.688 25.676 196.68 26.216 195.336 26.216C194.244 26.216 193.38 25.886 192.744 25.226C192.12 24.554 191.808 23.654 191.808 22.526V17H192.996V22.526C192.996 23.33 193.206 23.954 193.626 24.398C194.058 24.842 194.664 25.064 195.444 25.064C196.308 25.064 197.01 24.794 197.55 24.254C198.09 23.702 198.36 22.856 198.36 21.716V17ZM206.219 16.784C207.551 16.784 208.625 17.258 209.441 18.206C210.269 19.142 210.683 20.252 210.683 21.536C210.683 21.668 210.671 21.854 210.647 22.094H202.745C202.865 23.006 203.249 23.732 203.897 24.272C204.557 24.8 205.367 25.064 206.327 25.064C207.011 25.064 207.599 24.926 208.091 24.65C208.595 24.362 208.973 23.99 209.225 23.534L210.269 24.146C209.873 24.782 209.333 25.286 208.649 25.658C207.965 26.03 207.185 26.216 206.309 26.216C204.893 26.216 203.741 25.772 202.853 24.884C201.965 23.996 201.521 22.868 201.521 21.5C201.521 20.156 201.959 19.034 202.835 18.134C203.711 17.234 204.839 16.784 206.219 16.784ZM206.219 17.936C205.283 17.936 204.497 18.218 203.861 18.782C203.237 19.334 202.865 20.054 202.745 20.942H209.459C209.339 19.994 208.973 19.256 208.361 18.728C207.749 18.2 207.035 17.936 206.219 17.936Z" fill="black"/>
<path d="M108.576 49.296C108.576 50.704 108.128 51.848 107.232 52.728C106.336 53.592 105.168 54.112 103.728 54.288V56.4H102.12V54.312C100.776 54.216 99.624 53.84 98.664 53.184C97.704 52.528 97.016 51.64 96.6 50.52L99.456 48.864C99.968 50.144 100.856 50.872 102.12 51.048V46.896C102.104 46.896 102.096 46.896 102.096 46.896L102.048 46.872C101.488 46.664 101.032 46.48 100.68 46.32C100.328 46.16 99.912 45.928 99.432 45.624C98.968 45.32 98.6 45.008 98.328 44.688C98.072 44.352 97.84 43.928 97.632 43.416C97.44 42.904 97.344 42.344 97.344 41.736C97.344 40.328 97.8 39.2 98.712 38.352C99.64 37.504 100.776 37.016 102.12 36.888V34.8H103.728V36.936C105.904 37.192 107.44 38.32 108.336 40.32L105.552 41.952C105.168 40.992 104.56 40.408 103.728 40.2V44.208C105.216 44.8 106.216 45.272 106.728 45.624C107.96 46.504 108.576 47.728 108.576 49.296ZM100.632 41.76C100.632 42.112 100.744 42.424 100.968 42.696C101.192 42.952 101.576 43.216 102.12 43.488V40.128C101.64 40.224 101.272 40.416 101.016 40.704C100.76 40.992 100.632 41.344 100.632 41.76ZM103.728 51C104.752 50.776 105.264 50.216 105.264 49.32C105.264 48.92 105.136 48.584 104.88 48.312C104.64 48.04 104.256 47.784 103.728 47.544V51ZM116.012 42.648C117.756 42.696 119.172 43.264 120.26 44.352C121.348 45.424 121.892 46.8 121.892 48.48C121.892 50.192 121.324 51.6 120.188 52.704C119.052 53.792 117.588 54.336 115.796 54.336C114.004 54.336 112.54 53.792 111.404 52.704C110.284 51.616 109.724 50.208 109.724 48.48C109.724 47.2 110.052 46.072 110.708 45.096L115.94 37.2H119.732L116.012 42.648ZM113.804 50.472C114.332 50.968 114.996 51.216 115.796 51.216C116.596 51.216 117.26 50.968 117.788 50.472C118.332 49.976 118.604 49.312 118.604 48.48C118.604 47.664 118.332 47.008 117.788 46.512C117.26 46.016 116.596 45.768 115.796 45.768C114.996 45.768 114.332 46.016 113.804 46.512C113.276 46.992 113.012 47.648 113.012 48.48C113.012 49.312 113.276 49.976 113.804 50.472ZM132.95 45.264C134.502 46.192 135.278 47.544 135.278 49.32C135.278 50.872 134.734 52.096 133.646 52.992C132.574 53.888 131.11 54.336 129.254 54.336C127.382 54.336 125.91 53.888 124.838 52.992C123.766 52.096 123.229 50.872 123.229 49.32C123.229 47.544 123.998 46.192 125.534 45.264C124.366 44.416 123.782 43.256 123.782 41.784C123.782 40.232 124.302 39.024 125.342 38.16C126.398 37.296 127.702 36.864 129.254 36.864C130.806 36.864 132.102 37.296 133.142 38.16C134.182 39.024 134.702 40.232 134.702 41.784C134.702 43.272 134.118 44.432 132.95 45.264ZM130.814 40.512C130.414 40.16 129.894 39.984 129.254 39.984C128.614 39.984 128.094 40.16 127.694 40.512C127.294 40.864 127.094 41.344 127.094 41.952C127.094 42.56 127.294 43.048 127.694 43.416C128.094 43.768 128.614 43.944 129.254 43.944C129.894 43.944 130.414 43.768 130.814 43.416C131.214 43.048 131.414 42.56 131.414 41.952C131.414 41.344 131.214 40.864 130.814 40.512ZM127.262 50.616C127.774 51.016 128.438 51.216 129.254 51.216C130.07 51.216 130.726 51.016 131.222 50.616C131.734 50.2 131.99 49.624 131.99 48.888C131.99 48.168 131.734 47.608 131.222 47.208C130.726 46.792 130.07 46.584 129.254 46.584C128.438 46.584 127.774 46.792 127.262 47.208C126.766 47.608 126.518 48.168 126.518 48.888C126.518 49.624 126.766 50.2 127.262 50.616ZM143.638 54.336C141.542 54.336 139.894 53.544 138.694 51.96C137.51 50.36 136.918 48.24 136.918 45.6C136.918 42.96 137.51 40.848 138.694 39.264C139.894 37.664 141.542 36.864 143.638 36.864C145.75 36.864 147.398 37.664 148.582 39.264C149.766 40.848 150.358 42.96 150.358 45.6C150.358 48.24 149.766 50.36 148.582 51.96C147.398 53.544 145.75 54.336 143.638 54.336ZM141.094 49.704C141.67 50.632 142.518 51.096 143.638 51.096C144.758 51.096 145.606 50.624 146.182 49.68C146.774 48.736 147.07 47.376 147.07 45.6C147.07 43.808 146.774 42.44 146.182 41.496C145.606 40.552 144.758 40.08 143.638 40.08C142.518 40.08 141.67 40.552 141.094 41.496C140.518 42.44 140.23 43.808 140.23 45.6C140.23 47.392 140.518 48.76 141.094 49.704ZM155.965 50.688L154.165 57.36H151.645L152.605 50.688H155.965ZM168.181 42.696C168.181 43.992 167.845 45.128 167.173 46.104H167.197L161.965 54H158.173L161.917 48.528C160.173 48.496 158.749 47.944 157.645 46.872C156.557 45.784 156.013 44.392 156.013 42.696C156.013 40.984 156.573 39.584 157.693 38.496C158.829 37.408 160.293 36.864 162.085 36.864C163.893 36.864 165.357 37.408 166.477 38.496C167.613 39.568 168.181 40.968 168.181 42.696ZM159.301 42.696C159.301 43.528 159.565 44.192 160.093 44.688C160.637 45.184 161.301 45.432 162.085 45.432C162.901 45.432 163.573 45.184 164.101 44.688C164.629 44.192 164.893 43.528 164.893 42.696C164.893 41.864 164.629 41.208 164.101 40.728C163.573 40.232 162.901 39.984 162.085 39.984C161.301 39.984 160.637 40.232 160.093 40.728C159.565 41.224 159.301 41.88 159.301 42.696ZM179.239 45.264C180.791 46.192 181.567 47.544 181.567 49.32C181.567 50.872 181.023 52.096 179.935 52.992C178.863 53.888 177.399 54.336 175.543 54.336C173.671 54.336 172.199 53.888 171.127 52.992C170.055 52.096 169.519 50.872 169.519 49.32C169.519 47.544 170.287 46.192 171.823 45.264C170.655 44.416 170.071 43.256 170.071 41.784C170.071 40.232 170.591 39.024 171.631 38.16C172.687 37.296 173.991 36.864 175.543 36.864C177.095 36.864 178.391 37.296 179.431 38.16C180.471 39.024 180.991 40.232 180.991 41.784C180.991 43.272 180.407 44.432 179.239 45.264ZM177.103 40.512C176.703 40.16 176.183 39.984 175.543 39.984C174.903 39.984 174.383 40.16 173.983 40.512C173.583 40.864 173.383 41.344 173.383 41.952C173.383 42.56 173.583 43.048 173.983 43.416C174.383 43.768 174.903 43.944 175.543 43.944C176.183 43.944 176.703 43.768 177.103 43.416C177.503 43.048 177.703 42.56 177.703 41.952C177.703 41.344 177.503 40.864 177.103 40.512ZM173.551 50.616C174.063 51.016 174.727 51.216 175.543 51.216C176.359 51.216 177.015 51.016 177.511 50.616C178.023 50.2 178.279 49.624 178.279 48.888C178.279 48.168 178.023 47.608 177.511 47.208C177.015 46.792 176.359 46.584 175.543 46.584C174.727 46.584 174.063 46.792 173.551 47.208C173.055 47.608 172.807 48.168 172.807 48.888C172.807 49.624 173.055 50.2 173.551 50.616ZM196.42 48.072V51.144H194.62V54H191.284V51.144H183.34V48.072L188.932 37.2H192.484L186.916 48.072H191.284V44.088H194.62V48.072H196.42Z" fill="black"/>
<circle cx="42" cy="44" r="20" fill="black"/>
<path d="M46.707 46.7838H45.7695C45.4244 46.7838 45.1445 47.0636 45.1445 47.4088V47.7213C45.1445 47.8939 45.0046 48.0338 44.832 48.0338H41.257C41.5154 47.3311 41.667 46.5938 41.707 45.8463C41.7198 45.6381 41.7198 45.4294 41.707 45.2213H42.957C43.3022 45.2213 43.582 44.9414 43.582 44.5963V43.3463C43.582 43.0011 43.3022 42.7213 42.957 42.7213H41.082C40.9467 42.3167 40.8628 41.8967 40.832 41.4713C40.8257 40.6913 41.3956 40.0261 42.1673 39.9127C42.9391 39.7993 43.6762 40.2724 43.8945 41.0213C43.9723 41.2879 44.2168 41.4713 44.4945 41.4713H45.457C45.644 41.4684 45.8211 41.3867 45.9445 41.2463C46.0588 41.0969 46.1043 40.9061 46.0695 40.7213C45.8624 38.6536 44.0184 37.1454 41.9508 37.3525C39.8832 37.5596 38.3749 39.4036 38.582 41.4713C38.592 41.8933 38.6507 42.3127 38.757 42.7213H37.957C37.6119 42.7213 37.332 43.0011 37.332 43.3463V44.5963C37.332 44.9414 37.6119 45.2213 37.957 45.2213H39.4445C39.4934 45.426 39.5185 45.6357 39.5195 45.8463C39.3736 46.9308 39.0572 47.9855 38.582 48.9713C38.4854 49.199 38.5292 49.4622 38.6945 49.6463L39.0195 50.0088C39.1405 50.1349 39.3072 50.207 39.482 50.2088H44.832C46.2127 50.2088 47.332 49.0895 47.332 47.7088V47.3963C47.3252 47.056 47.0474 46.7837 46.707 46.7838Z" fill="white"/>
<rect x="96" y="72" width="146" height="8" fill="#E5E5E5"/>
<rect x="96" y="72" width="51" height="8" fill="black"/>
</svg>
