<svg width="108" height="46" viewBox="0 0 108 46" fill="none" xmlns="http://www.w3.org/2000/svg">
<path d="M106.491 3.0892C97.1807 2.64015 87.8678 2.19108 78.5583 1.74091C76.5896 1.64708 76.5974 4.7 78.5583 4.79607C86.4139 5.17475 94.2651 5.55566 102.122 5.93434C95.8117 10.2283 89.717 14.844 83.5988 19.4004C79.2026 22.6756 74.4512 23.9893 69.9723 20.0159C66.6436 17.0636 65.3248 12.3652 63.3316 8.53037C61.4601 4.92899 58.3446 1.18909 54.041 0.715462C48.7994 0.141296 44.1251 3.77508 40.7104 7.34965C33.4209 14.9735 30.6337 25.6783 25.0516 34.4338C22.4755 38.4753 18.8586 42.3313 13.7432 42.3995C8.76632 42.4698 4.72739 38.1591 3.05352 33.835C2.35115 32.0187 -0.602398 32.8084 0.110027 34.6482C3.54932 43.5322 13.54 48.9231 21.9037 42.5849C25.6602 39.7398 28.1749 35.4726 30.3456 31.3708C32.7844 26.7629 34.8469 21.9663 37.3515 17.3931C40.0806 12.4099 43.636 7.69817 48.6789 4.88766C54.0656 1.88725 58.1894 5.42273 60.6963 10.0686C62.723 13.823 64.0127 17.9081 66.8435 21.1844C70.0974 24.9444 74.9693 26.5161 79.7397 25.0907C82.1293 24.3769 84.0879 22.8186 86.0543 21.3553C88.1738 19.7769 90.2965 18.2063 92.4237 16.6368C95.6855 14.2385 98.9506 11.8402 102.275 9.52903C98.7496 16.4425 95.2232 23.3593 91.6968 30.2749C90.8024 32.0265 93.4377 33.5725 94.3321 31.8165C98.8255 23.0052 103.319 14.1961 107.812 5.38476C108.348 4.33137 107.683 3.14505 106.494 3.08585L106.491 3.0892Z" fill="black"/>
</svg>
